<?xml version="1.0" standalone="no"?>
  <!DOCTYPE svg PUBLIC "-//W3C//DTD SVG 1.1//EN" "http://www.w3.org/Graphics/SVG/1.1/DTD/svg11.dtd">
  <svg t="1529276316431"
    class="icon"
    style=""
    viewBox="0 0 1229 1024"
    version="1.1"
    xmlns="http://www.w3.org/2000/svg"
    p-id="1768"
    xmlns:xlink="http://www.w3.org/1999/xlink"
    width="240.0390625"
    fill="#888"
    height="200">
    <defs>
    <style type="text/css"></style>
    </defs>
    <path d="M710.23616 236.98432c1.88416 1.56672 4.20864 2.37568 6.56384 2.37568 1.47456 0 2.95936-0.31744 4.34176-0.96256C724.736 236.70784 727.04 233.09312 727.04 229.12L727.04 215.04l40.96 0 0 40.96-10.24 0c-3.97312 0-7.58784 4.21888-9.2672 7.81312-1.6896 3.60448-1.13664 8.8064 1.40288 11.85792l25.6 31.20128c1.9456 2.33472 4.83328 3.92192 7.87456 3.92192s5.91872-1.2288 7.87456-3.56352l25.6-30.65856c2.53952-3.05152 3.09248-9.18528 1.40288-12.78976C816.54784 260.18816 812.93312 256 808.96 256l-10.24 0 0-40.96 40.96 0 0 14.08c0 3.97312 2.304 7.58784 5.89824 9.27744 1.3824 0.64512 2.85696 0.96256 4.34176 0.96256 2.34496 0 4.67968-0.80896 6.56384-2.37568l30.72-25.6C889.52832 209.43872 890.88 206.55104 890.88 203.52s-1.35168-5.91872-3.67616-7.86432l-30.72-25.6c-3.05152-2.53952-7.31136-3.08224-10.89536-1.41312C841.984 170.32192 839.68 173.93664 839.68 177.92L839.68 184.32l-40.96 0 0-40.96 10.24 0c3.97312 0 7.58784-0.37888 9.2672-3.98336 1.6896-3.60448 1.13664-6.89152-1.40288-9.94304l-25.6-30.23872c-3.90144-4.66944-11.83744-4.43392-15.73888 0.23552l-25.6 30.84288c-2.53952 3.05152-3.09248 5.44768-1.40288 9.04192C750.17216 142.91968 753.78688 143.36 757.76 143.36l10.24 0 0 40.96-40.96 0 0-6.4c0-3.97312-2.304-7.58784-5.89824-9.27744-3.56352-1.66912-7.8336-1.13664-10.89536 1.41312l-30.72 25.6C677.19168 197.59104 675.84 200.47872 675.84 203.52s1.35168 5.91872 3.67616 7.86432L710.23616 236.98432z" p-id="1769">
    </path>
    <path d="M834.37568 469.76c-4.16768 0-14.7456 1.4336-25.62048 4.8128-2.77504-36.99712-33.78176-66.2528-71.4752-66.2528-16.96768 0-32.58368 5.92896-44.87168 15.8208-9.08288-27.72992-33.09568-46.5408-62.83264-46.5408-19.69152 0-37.21216 8.09984-49.70496 21.32992l-3.15392-88.2176c34.95936-25.10848 57.79456-66.07872 57.79456-112.31232 0-76.22656-62.01344-138.24-138.24-138.24s-138.24 62.01344-138.24 138.24c0 53.00224 30.08512 98.93888 73.99424 122.10176l4.62848 216.40192c-8.27392 4.49536-20.82816 12.71808-36.89472 27.31008-55.59296 50.52416-73.78944 172.72832-11.008 267.3152 69.888 105.28768 151.77728 150.23104 273.83808 150.23104 129.32096 0 172.58496-64.90112 205.824-131.3792 31.96928-63.93856 32.33792-308.79744 32.33792-319.1808C900.7616 498.46272 869.74464 469.76 834.37568 469.76zM840.93952 836.63872c-31.29344 62.58688-66.304 114.40128-178.33984 114.40128-111.98464 0-183.90016-39.54688-248.23808-136.4992-37.48864-56.48384-53.76-173.21984 6.07232-227.60448 6.46144-5.86752 12.16512-10.46528 16.9984-14.03904l2.29376 107.10016c0.18432 8.47872 6.85056 15.43168 15.68768 15.03232 8.47872-0.18432 15.2064-7.19872 15.03232-15.68768l-10.07616-470.70208c0-27.12576 16.85504-46.08 41.00096-46.08s41.00096 18.95424 41.0112 46.63296l10.24 286.72c0.27648 7.87456 6.48192 14.26432 14.336 14.77632 7.77216 0.48128 14.83776-4.99712 16.15872-12.76928l7.77216-46.08c0.14336-0.84992 0.21504-1.69984 0.21504-2.56 0-23.3472 16.54784-40.96 38.49216-40.96 24.75008 0 36.02432 21.22752 36.02432 40.96l0 30.72c0 8.48896 6.88128 15.36 15.36 15.36s15.36-6.87104 15.36-15.36c0-22.58944 18.37056-40.96 40.96-40.96s40.96 18.37056 40.96 40.96l0 66.56c0 8.47872 6.88128 15.36 15.36 15.36s15.36-6.88128 15.36-15.36l0-39.1168c6.144-2.99008 18.18624-6.97344 25.41568-6.97344 18.3296 0 35.65568 14.92992 35.65568 30.72C870.0416 599.97184 864.79872 788.92032 840.93952 836.63872z" p-id="1770">
    </path>
  </svg>